<svg width="106" height="24" viewBox="0 0 106 24" fill="none" xmlns="http://www.w3.org/2000/svg">
<path d="M12 22C17.5228 22 22 17.5228 22 12C22 6.47715 17.5228 2 12 2C6.47715 2 2 6.47715 2 12C2 17.5228 6.47715 22 12 22Z" stroke="black" stroke-width="2" stroke-linecap="round" stroke-linejoin="round"/>
<path d="M8.56 2.75C12.93 8.78 14.58 12.17 16.59 20.47M19.13 5.09C15.41 9.44 10.19 10.75 2.25 10.94M21.75 12.84C18.25 11.91 15.12 12.02 12.81 12.84C10.23 13.76 7.8 15.7 5.37 19.16" stroke="black" stroke-width="2" stroke-linecap="round" stroke-linejoin="round"/>
<path d="M40.072 6.768V8.96H37.096V18H34.36V8.96H31.384V6.768H40.072ZM45.5091 18.128C44.6345 18.128 43.8451 17.9413 43.1411 17.568C42.4478 17.1947 41.8985 16.6613 41.4931 15.968C41.0985 15.2747 40.9011 14.464 40.9011 13.536C40.9011 12.6187 41.1038 11.8133 41.5091 11.12C41.9145 10.416 42.4691 9.87733 43.1731 9.504C43.8771 9.13067 44.6665 8.944 45.5411 8.944C46.4158 8.944 47.2051 9.13067 47.9091 9.504C48.6131 9.87733 49.1678 10.416 49.5731 11.12C49.9785 11.8133 50.1811 12.6187 50.1811 13.536C50.1811 14.4533 49.9731 15.264 49.5571 15.968C49.1518 16.6613 48.5918 17.1947 47.8771 17.568C47.1731 17.9413 46.3838 18.128 45.5091 18.128ZM45.5091 15.76C46.0318 15.76 46.4745 15.568 46.8371 15.184C47.2105 14.8 47.3971 14.2507 47.3971 13.536C47.3971 12.8213 47.2158 12.272 46.8531 11.888C46.5011 11.504 46.0638 11.312 45.5411 11.312C45.0078 11.312 44.5651 11.504 44.2131 11.888C43.8611 12.2613 43.6851 12.8107 43.6851 13.536C43.6851 14.2507 43.8558 14.8 44.1971 15.184C44.5491 15.568 44.9865 15.76 45.5091 15.76ZM60.7526 9.072L55.1526 22.24H52.2086L54.2566 17.696L50.6246 9.072H53.6806L55.7446 14.656L57.7926 9.072H60.7526ZM69.1966 18.112C68.3753 18.112 67.6393 17.9787 66.9886 17.712C66.338 17.4453 65.8153 17.0507 65.4206 16.528C65.0366 16.0053 64.834 15.376 64.8126 14.64H67.7246C67.7673 15.056 67.9113 15.376 68.1566 15.6C68.402 15.8133 68.722 15.92 69.1166 15.92C69.522 15.92 69.842 15.8293 70.0766 15.648C70.3113 15.456 70.4286 15.1947 70.4286 14.864C70.4286 14.5867 70.3326 14.3573 70.1406 14.176C69.9593 13.9947 69.73 13.8453 69.4526 13.728C69.186 13.6107 68.802 13.4773 68.3006 13.328C67.5753 13.104 66.9833 12.88 66.5246 12.656C66.066 12.432 65.6713 12.1013 65.3406 11.664C65.01 11.2267 64.8446 10.656 64.8446 9.952C64.8446 8.90667 65.2233 8.09067 65.9806 7.504C66.738 6.90667 67.7246 6.608 68.9406 6.608C70.178 6.608 71.1753 6.90667 71.9326 7.504C72.69 8.09067 73.0953 8.912 73.1486 9.968H70.1886C70.1673 9.60533 70.034 9.32267 69.7886 9.12C69.5433 8.90667 69.2286 8.8 68.8446 8.8C68.514 8.8 68.2473 8.89067 68.0446 9.072C67.842 9.24267 67.7406 9.49333 67.7406 9.824C67.7406 10.1867 67.9113 10.4693 68.2526 10.672C68.594 10.8747 69.1273 11.0933 69.8526 11.328C70.578 11.5733 71.1646 11.808 71.6126 12.032C72.0713 12.256 72.466 12.5813 72.7966 13.008C73.1273 13.4347 73.2926 13.984 73.2926 14.656C73.2926 15.296 73.1273 15.8773 72.7966 16.4C72.4766 16.9227 72.0073 17.3387 71.3886 17.648C70.77 17.9573 70.0393 18.112 69.1966 18.112ZM80.4644 8.976C81.4884 8.976 82.3097 9.31733 82.9284 10C83.547 10.672 83.8564 11.6 83.8564 12.784V18H81.1364V13.152C81.1364 12.5547 80.9817 12.0907 80.6724 11.76C80.363 11.4293 79.947 11.264 79.4244 11.264C78.9017 11.264 78.4857 11.4293 78.1764 11.76C77.867 12.0907 77.7124 12.5547 77.7124 13.152V18H74.9764V6.16H77.7124V10.272C77.9897 9.87733 78.3684 9.56267 78.8484 9.328C79.3284 9.09333 79.867 8.976 80.4644 8.976ZM89.8216 18.128C88.947 18.128 88.1576 17.9413 87.4536 17.568C86.7603 17.1947 86.211 16.6613 85.8056 15.968C85.411 15.2747 85.2136 14.464 85.2136 13.536C85.2136 12.6187 85.4163 11.8133 85.8216 11.12C86.227 10.416 86.7816 9.87733 87.4856 9.504C88.1896 9.13067 88.979 8.944 89.8536 8.944C90.7283 8.944 91.5176 9.13067 92.2216 9.504C92.9256 9.87733 93.4803 10.416 93.8856 11.12C94.291 11.8133 94.4936 12.6187 94.4936 13.536C94.4936 14.4533 94.2856 15.264 93.8696 15.968C93.4643 16.6613 92.9043 17.1947 92.1896 17.568C91.4856 17.9413 90.6963 18.128 89.8216 18.128ZM89.8216 15.76C90.3443 15.76 90.787 15.568 91.1496 15.184C91.523 14.8 91.7096 14.2507 91.7096 13.536C91.7096 12.8213 91.5283 12.272 91.1656 11.888C90.8136 11.504 90.3763 11.312 89.8536 11.312C89.3203 11.312 88.8776 11.504 88.5256 11.888C88.1736 12.2613 87.9976 12.8107 87.9976 13.536C87.9976 14.2507 88.1683 14.8 88.5096 15.184C88.8616 15.568 89.299 15.76 89.8216 15.76ZM98.6811 10.336C98.9478 9.92 99.3158 9.584 99.7851 9.328C100.254 9.072 100.804 8.944 101.433 8.944C102.169 8.944 102.836 9.13067 103.433 9.504C104.03 9.87733 104.5 10.4107 104.841 11.104C105.193 11.7973 105.369 12.6027 105.369 13.52C105.369 14.4373 105.193 15.248 104.841 15.952C104.5 16.6453 104.03 17.184 103.433 17.568C102.836 17.9413 102.169 18.128 101.433 18.128C100.814 18.128 100.265 18 99.7851 17.744C99.3158 17.488 98.9478 17.1573 98.6811 16.752V22.256H95.9451V9.072H98.6811V10.336ZM102.585 13.52C102.585 12.8373 102.393 12.304 102.009 11.92C101.636 11.5253 101.172 11.328 100.617 11.328C100.073 11.328 99.6091 11.5253 99.2251 11.92C98.8518 12.3147 98.6651 12.8533 98.6651 13.536C98.6651 14.2187 98.8518 14.7573 99.2251 15.152C99.6091 15.5467 100.073 15.744 100.617 15.744C101.161 15.744 101.625 15.5467 102.009 15.152C102.393 14.7467 102.585 14.2027 102.585 13.52Z" fill="black"/>
</svg>
